<svg xmlns="http://www.w3.org/2000/svg" viewBox="0 0 1000 995.31"><path fill="#ffef38" fill-rule="evenodd" d="M5.21 5.21h989.58v984.88H5.21Z"/><path fill="#003da4" d="M1000 995.3H0V0h1000ZM10.43 984.88h979.14V10.42H10.43Z"/><path fill="#003da4" fill-rule="evenodd" d="m423.36 680.39-80.82-54.22L726.8 367.05 489.57 207.5 378 282.58l86.55 57.35-199.69 133.48L97.5 362.87l403-268.5 399.9 267.46Zm151.72-367.57 80.81 54.23-384.25 259.12 237.74 159.54L621 710.65l-86.55-56.83 200.17-133.49L902 630.86l-404.07 268L99.06 632.43ZM261.73 792.49l-82.38-56.31-83.42 56.31 1 108.44ZM740.35 204.9l82.9 56.31 80.82-53.71V96.45Z"/></svg>