<svg xmlns="http://www.w3.org/2000/svg" width="2500" height="2500" viewBox="0 0 378.762 378.806"><path fill="#cc2229" fill-rule="evenodd" d="M-.012.205H378.72V378.91H222.078V222.02h-34.335v156.89h-18.24V271.794h-17.164V378.91H-.011ZM12.86 132.212q30.035-13.52 60.083-27.05c80.42-113.045 184.892-70.247 222.09-16.23-86.551-55.902-150.57-27.408-182.392 10.82 243.197-25.437 303.995 123.882 172.735 178.532 116.226-94.136-31.476-170.96-185.608-163.386-37.026 68.885-24.872 119.74 9.653 165.549-37.227-28.74-61.916-70.744-41.842-160.138q-27.362 5.955-54.72 11.903" clip-rule="evenodd" style="stroke-width:1.24174"/></svg>