<svg xmlns="http://www.w3.org/2000/svg" width="2500" height="2500" fill="none" class="undefined icon icon--banco-color fill-white" data-testid="icon"><g fill="#ff7a00"><path d="M274.076 375.808c-.122 3.531-.122 7.732-.122 16.134v31.293c0 8.402 0 12.603.122 16.134 3.957 105.326 93.454 189.83 204.99 193.605 3.774.122 8.218.122 17.168.122 8.889 0 13.333 0 17.047-.122 111.597-3.775 201.154-88.279 205.05-193.605.183-3.531.183-7.732.183-16.134v-31.293c0-8.402 0-12.603-.182-16.134-3.897-105.326-93.454-189.89-204.99-193.605-3.775-.121-8.22-.121-17.108-.121-8.95 0-13.394 0-17.169.121-111.535 3.714-201.032 88.28-204.99 193.605M1926.536 787.736c-269.342 0-435.55 159.146-518.715 315.673l-19.3-264.167H989.135v1662.263h418.747V1567.27c0-275.735 146.238-444.5 367.24-444.5s302.828 146.239 302.828 399.386v979.349h418.746V1431.99c.67-371.076-160.424-644.254-570.16-644.254M3.333 839.242v283.163h283.345v1379.1h418.93V839.242Z"/></g></svg>