<svg xmlns="http://www.w3.org/2000/svg" width="2500" height="2500" viewBox="0 0.4 238.2 240.719"><path fill="#ea1d25" d="M171.737 111.722c-.548-8.662-2.74-17.325-7.124-24.833L127.35 18.165c-2.74-5.198-4.932-10.973-6.028-16.748l-1.644 2.887c-9.315 16.748-9.315 38.116 0 54.864l30.139 54.865c9.315 16.748 9.315 38.116 0 54.864l-1.644 2.887c-1.096-5.775-3.288-11.55-6.028-16.748l-27.399-50.244-17.535-32.34c-2.74-5.198-4.932-10.974-6.028-16.749l-1.643 2.888c-9.316 16.748-9.316 37.539 0 54.864l30.138 54.864c9.316 16.748 9.316 38.116 0 54.864l-1.644 2.888c-1.096-5.775-3.288-11.55-6.028-16.748l-37.81-68.725c-4.931-9.24-7.123-19.635-7.123-30.03C27.072 121.54-.875 145.217-.875 172.361c0 38.116 53.701 68.724 120.006 68.724s120.006-30.608 120.006-68.724c.548-25.988-26.85-49.667-67.4-60.64" style="stroke-width:5.62551"/></svg>